<svg xmlns="http://www.w3.org/2000/svg" width="93" height="48" viewBox="0 0 93 48">
    <g fill="none" fill-rule="evenodd">
        <path fill="#231F20" d="M16.732 31.19c4.448 0 8.034 3.632 8.049 8.135v.015c0 4.488-3.601 8.134-8.049 8.134-4.433 0-8.034-3.646-8.034-8.134v-.015c.014-4.503 3.601-8.134 8.034-8.134z"/>
        <path fill="#DE5554" d="M92.826 33.25v.886c0 2.861-2.298 5.187-5.143 5.187h-2.079c-.018-5.63-4.485-10.172-10.047-10.172-5.544 0-10.03 4.541-10.048 10.172H26.796c-.019-5.63-4.504-10.172-10.066-10.172-5.544 0-10.03 4.541-10.048 10.172H5.077c-2.808 0-5.069-2.289-5.069-5.132v-11.52c0-1.57 1.24-2.825 2.79-2.825l2.06-.018S15.764 0 42.77 0c26.988 0 38.422 20.566 38.422 20.566l-.055.037h.055c2.334.166 4.485.979 6.29 2.271h-6.126l3.464 3.508a10.33 10.33 0 0 0 7.35 3.083h.09c.365 1.2.566 2.474.566 3.784"/>
        <path fill="#B04241" d="M92.818 34.196a5.181 5.181 0 0 1-3.574 4.892 5.466 5.466 0 0 1-1.569.24h-2.06c0-1.865-.51-3.637-1.386-5.132-1.733-3.01-4.96-5.04-8.662-5.04a9.97 9.97 0 0 0-8.662 5.04 10.015 10.015 0 0 0-1.404 5.132H26.788c0-1.865-.51-3.637-1.386-5.132-1.733-3.01-4.96-5.04-8.662-5.04a9.97 9.97 0 0 0-8.662 5.04 10.015 10.015 0 0 0-1.404 5.132H5.07a4.975 4.975 0 0 1-2.024-.425A5.15 5.15 0 0 1 0 34.196h4.012c2.006-5.114 6.947-8.733 12.728-8.733 5.762 0 10.704 3.619 12.71 8.733h33.389c2.006-5.114 6.947-8.733 12.728-8.733 5.762 0 10.704 3.619 12.71 8.733h4.54z"/>
        <path fill="#F7A286" d="M92.26 29.465h-.091a10.33 10.33 0 0 1-7.349-3.083l-3.465-3.508h2.134l3.465 3.508c1.02 1.033 3.009 1.846 5.05 2.363.092.24.183.48.256.72"/>
        <path fill="#B5E3F9" d="M92.005 28.745c-2.042-.517-4.03-1.33-5.051-2.363l-3.465-3.508h3.994c2.042 1.421 3.629 3.49 4.522 5.87"/>
        <path fill="#57A2D8" d="M50.068 8.803v11.038h20.11c0-7.117-5.699-11.038-12.729-11.038h-7.381zM26.755 19.843H46.42V8.804H26.755zM22.842 19.842h-8.31l.728-2.234c1.387-4.253 4.035-6.125 7.582-8.804v11.038z"/>
        <path fill="#57526B" d="M32.235 23.654h-4.709a.777.777 0 0 1-.771-.783c0-.432.345-.781.771-.781h4.709c.426 0 .773.349.773.78a.778.778 0 0 1-.773.784M55.548 23.654H50.84a.777.777 0 0 1-.772-.783c0-.432.345-.781.772-.781h4.708c.427 0 .773.349.773.78a.778.778 0 0 1-.773.784"/>
        <path fill="#5D5D5D" d="M20.742 39.323v.019c0 2.233-1.788 4.061-4.012 4.061-2.207 0-4.012-1.828-4.012-4.061v-.019c.018-2.252 1.805-4.061 4.012-4.061 2.224 0 3.993 1.809 4.012 4.061"/>
        <path fill="#231F20" d="M75.55 31.19c-4.433 0-8.02 3.632-8.035 8.135v.015c0 4.488 3.602 8.134 8.035 8.134 4.448 0 8.049-3.646 8.049-8.134v-.015c-.015-4.503-3.601-8.134-8.05-8.134z"/>
        <path fill="#5D5D5D" d="M79.56 39.323v.019c0 2.233-1.788 4.061-4.012 4.061-2.207 0-4.012-1.828-4.012-4.061v-.019c.018-2.252 1.805-4.061 4.012-4.061 2.224 0 3.993 1.809 4.011 4.061"/>
    </g>
</svg>
