<svg xmlns="http://www.w3.org/2000/svg" width="45" height="58" viewBox="0 0 45 58">
    <g fill="none" fill-rule="evenodd">
        <path fill="#FBDF59" d="M44.04 24.49c-.84 8.15-6.156 14.955-13.468 17.993a5.025 5.025 0 0 1-1.51 3.599 2.735 2.735 0 0 1-.288.26 5.098 5.098 0 0 1-3.334 1.24h-6.721a5.05 5.05 0 0 1-3.466-1.357 5.004 5.004 0 0 1-1.667-3.742 22.077 22.077 0 0 1-9.78-7.94A21.74 21.74 0 0 1 .119 24.491 21.45 21.45 0 0 1 0 22.235C0 9.718 10.567-.36 23.326.344 34.143.93 43.108 9.51 44.066 20.227a21.999 21.999 0 0 1-.026 4.264z"/>
        <path fill="#FBDF59" d="M22.145.304V47.58h-3.36a5.05 5.05 0 0 1-3.466-1.356 5.004 5.004 0 0 1-1.667-3.742 22.077 22.077 0 0 1-9.78-7.94A21.74 21.74 0 0 1 .184 24.49a21.45 21.45 0 0 1-.118-2.256C.066 10.122 9.95.304 22.145.304"/>
        <path fill="#FEC642" d="M44.106 24.49c-.84 8.149-6.157 14.955-13.468 17.993a5.025 5.025 0 0 1-1.51 3.598c-.092.091-.184.183-.289.26a5.098 5.098 0 0 1-3.334 1.24h-3.36V.304c.42 0 .827.013 1.247.039 10.816.587 19.782 9.166 20.74 19.883a21.999 21.999 0 0 1-.026 4.264"/>
        <path fill="#96999B" d="M22.08 47.581v7.067h-3.19a3.637 3.637 0 0 1-3.387-2.295 3.6 3.6 0 0 1-.25-1.304v-4.824a5.05 5.05 0 0 0 3.466 1.356h3.36z"/>
        <path fill="#BFC1C3" d="M28.774 46.343v4.706c0 .457-.092.9-.25 1.304a3.637 3.637 0 0 1-3.386 2.295h-3.059V47.58h3.36c1.274 0 2.442-.47 3.335-1.238"/>
        <path fill="#6E7072" d="M15.253 49.772h13.52v-1.304h-13.52zM28.774 51.05c0 .456-.092.9-.25 1.303H15.503a3.6 3.6 0 0 1-.25-1.303h13.52zM24.954 54.652a2.931 2.931 0 0 1-2.93 2.931c-1.623 0-2.951-1.32-2.951-2.93h5.88z"/>
        <path fill="#FEFEFE" d="M19.294 30.985a2.887 2.887 0 0 1-2.034-.834l-1.083-1.076a1.026 1.026 0 0 1 0-1.456 1.041 1.041 0 0 1 1.465 0l1.083 1.075a.81.81 0 0 0 1.14-.001l.088-.087c1.086-1.08 2.984-1.08 4.07 0a.811.811 0 0 0 1.14 0l1.302-1.294a1.041 1.041 0 0 1 1.465 0 1.022 1.022 0 0 1 0 1.455l-1.302 1.295a2.897 2.897 0 0 1-4.07 0 .829.829 0 0 0-1.139 0l-.089.087a2.883 2.883 0 0 1-2.036.836"/>
        <path fill="#FEFEFE" d="M19.072 47.203a.983.983 0 0 1-.973-.841l-2.634-18.41a.976.976 0 0 1 .836-1.104.97.97 0 0 1 1.112.829l2.634 18.411a.975.975 0 0 1-.975 1.115M24.954 47.203a.975.975 0 0 1-.975-1.115l2.635-18.411a.968.968 0 0 1 1.112-.83c.538.075.913.57.836 1.105l-2.635 18.41a.983.983 0 0 1-.973.84"/>
    </g>
</svg>
