<svg xmlns="http://www.w3.org/2000/svg" width="68" height="49" viewBox="0 0 68 49">
    <g fill="none" fill-rule="evenodd">
        <path fill="#BFC1C3" d="M66.416 43.954l-3.645-2.135c1.11-1.95.46-4.442-1.463-5.567a3.99 3.99 0 0 0-5.491 1.493v.01l-6.322-3.705a1.253 1.253 0 0 0-.44-1.689l-9.557-5.596-2.294-1.34-3.444-2.017-3.3-1.94-4.428-2.59a1.26 1.26 0 0 0-.604-.165c-.42 0-.832.223-1.061.62 0 .01-.01.01-.01.02l-7.738-4.53.028-.039c1.234-2.173.488-4.977-1.654-6.228L4.624 2.474A11.758 11.758 0 0 1 11.837 0c1.998 0 4.036.514 5.892 1.6 4.265 2.504 6.418 7.295 5.816 11.962.047.029.105.048.152.087l9.174 5.364.889.524 3.29 1.931h.01l2.438 1.425 3.3 1.941 12.809 7.498a8.182 8.182 0 0 1 3.701-.892 8.12 8.12 0 0 1 4.104 1.115c3.932 2.31 5.28 7.412 3.004 11.399"/>
        <path fill="#838588" d="M66.416 43.954a8.21 8.21 0 0 1-7.127 4.172 8.123 8.123 0 0 1-4.103-1.127c-2.487-1.454-3.94-4.024-4.093-6.731L36.82 31.915l-3.06-1.795-3.3-1.93-1.818-1.057-.622-.368-3.3-1.931-5.547-3.25c-.048-.029-.095-.058-.153-.097a11.707 11.707 0 0 1-7.212 2.483c-2 0-4.037-.513-5.892-1.6C1.649 19.867-.504 15.075.1 10.42l10.378 6.072a4.472 4.472 0 0 0 2.238.612c1.559 0 3.08-.825 3.903-2.28l7.738 4.53a1.247 1.247 0 0 0 .46 1.668l3.203 1.872 3.3 1.941 1.015.592 1.425.834 3.3 1.93 2.161 1.262 8.61 5.044a1.217 1.217 0 0 0 1.665-.446l6.321 3.705c-1.11 1.95-.45 4.433 1.474 5.55a3.87 3.87 0 0 0 2.008.551 3.994 3.994 0 0 0 3.472-2.037l3.645 2.135z"/>
    </g>
</svg>
