<svg xmlns="http://www.w3.org/2000/svg" width="350" height="126" viewBox="0 0 350 126">
    <g fill="none" fill-rule="evenodd">
        <path fill="#F2F2F2" d="M56 100.25c0 4.527-.912 8.535-2.737 12.021-1.825 3.499-4.19 6.199-7.095 8.112-2.905 1.9-5.894 3.317-8.979 4.237-3.085.92-6.158 1.38-9.243 1.38-3.29 0-6.41-.412-9.351-1.223-2.941-.81-5.342-1.804-7.19-2.966-1.862-1.162-3.47-2.349-4.839-3.547-1.368-1.199-2.328-2.228-2.88-3.075l-.949-1.162C.912 111.763 0 109.887 0 108.409c0-2.118 1.513-4.66 4.526-7.627 1.74-1.695 3.493-2.542 5.245-2.542 2.173 0 4.838 1.586 7.983 4.77l.529.52c.276.363.696.811 1.26 1.38.564.57 1.645 1.332 3.253 2.276 1.609.957 3.193 1.429 4.73 1.429 6.518 0 9.771-2.676 9.771-8.05 0-1.623-.888-2.979-2.677-4.08-1.788-1.09-4.01-1.89-6.674-2.374-2.665-.496-5.534-1.295-8.62-2.385-3.072-1.101-5.941-2.385-8.606-3.874-2.665-1.477-4.886-3.825-6.675-7.046-1.788-3.208-2.677-7.082-2.677-11.598 0-6.21 2.293-11.634 6.879-16.259C12.833 48.324 19.087 46 26.997 46c4.202 0 8.044.557 11.513 1.646 3.457 1.102 5.858 2.204 7.19 3.342l2.101 1.586.528.424c2.173 2.046 3.253 3.74 3.253 5.084 0 1.49-.84 3.463-2.52 5.933-2.377 3.535-4.826 5.302-7.36 5.302-1.464 0-3.288-.714-5.461-2.118-.204-.146-.612-.497-1.2-1.066-.6-.557-1.14-1.005-1.633-1.32-.492-.326-1.309-.641-2.473-.956-1.152-.315-2.497-.472-4.033-.472-1.681 0-3.278.545-4.79 1.634-1.5 1.102-2.257 2.53-2.257 4.298 0 2.119.9 3.777 2.677 4.976 1.789 1.199 4.01 2.01 6.674 2.433 2.665.424 5.57 1.078 8.716 1.962 3.157.883 6.062 1.96 8.727 3.232 2.653 1.271 4.885 3.487 6.674 6.622C55.1 91.69 56 95.588 56 100.25M301 75.548v40.392c0 5.003-4.253 9.06-9.5 9.06-5.246 0-9.5-4.057-9.5-9.06V75.548c0-1.963 1.674-3.548 3.72-3.548h11.56c2.054 0 3.72 1.588 3.72 3.548M271.95 116.376l-7.408 7.562a3.527 3.527 0 0 1-5.045 0l-16.31-16.625v14.064c0 1.916-1.524 3.469-3.404 3.469h-11.38c-1.88 0-3.403-1.553-3.403-3.47V46.643c0-2.01 1.6-3.642 3.573-3.642h11.028c1.973 0 3.573 1.631 3.573 3.642v36.3l13.604-13.854a3.513 3.513 0 0 1 5.034 0l7.419 7.563a3.677 3.677 0 0 1 0 5.13l-13.094 13.347 15.812 16.117a3.657 3.657 0 0 1 0 5.13M102 73.904v10.435c0 1.81-1.417 3.276-3.166 3.276H86.76v17.025c0 1.99 1.558 3.603 3.48 3.603h5.031c1.767 0 3.213 1.496 3.213 3.325v10.107c0 1.829-1.446 3.325-3.213 3.325h-7.339C68.176 125 68 111.058 68 103.122V53.373C68 51.518 69.467 50 71.26 50H83.5c1.792 0 3.259 1.518 3.259 3.373v17.255h12.075c1.749 0 3.166 1.467 3.166 3.276M350 73.904v10.435c0 1.81-1.417 3.276-3.166 3.276H334.76v17.025c0 1.99 1.558 3.603 3.48 3.603h5.031c1.767 0 3.213 1.496 3.213 3.325v10.107c0 1.829-1.446 3.325-3.213 3.325h-7.339C316.176 125 316 111.058 316 103.122V53.373c0-1.855 1.467-3.373 3.26-3.373h12.24c1.792 0 3.259 1.518 3.259 3.373v17.255h12.075c1.749 0 3.166 1.467 3.166 3.276M197.404 107.75c-5.746 0-10.376-4.767-10.203-10.56.167-5.525 4.906-10.038 10.413-9.926 2.445.05 4.681.964 6.415 2.456 1.959 1.684 4.922 1.444 6.745-.386l5.746-5.767c2.017-2.023 1.97-5.35-.149-7.266A28.178 28.178 0 0 0 197.404 69C181.71 69 169 81.767 169 97.506c0 15.74 12.71 28.494 28.404 28.494 7.296 0 13.952-2.76 18.97-7.3 2.119-1.915 2.165-5.242.148-7.266l-5.786-5.806c-1.855-1.862-4.795-1.939-6.809-.25a10.112 10.112 0 0 1-6.523 2.372M128.258 104.75c-4.003-4.004-3.994-10.493 0-14.488a10.24 10.24 0 0 1 14.487 0c3.995 3.995 3.995 10.476-.008 14.479-3.995 3.994-10.484 4.003-14.479.008m27.4-27.4c-11.138-11.136-29.183-11.128-40.313 0-11.128 11.13-11.128 29.167.009 40.305 11.129 11.128 29.166 11.128 40.295 0 11.13-11.13 11.137-29.175.009-40.305"/>
        <path fill="#57A0D7" d="M283 3.374v24.24c0 .12 0 .226-.012.346a3.39 3.39 0 0 1-3.361 3.04h-51.254A3.377 3.377 0 0 1 225 27.614V3.374A3.375 3.375 0 0 1 228.373 0h51.254A3.375 3.375 0 0 1 283 3.374"/>
        <path fill="#4580AC" d="M283 22.426v16.136c0 1.9-1.489 3.438-3.318 3.438h-23.94v-9.999H249v-9.575c0-1.9 1.49-3.426 3.33-3.426H283v3.426z"/>
        <path fill="#33BCB1" d="M290 29.426v16.136c0 .145-.012.29-.023.424-.199 1.707-1.607 3.014-3.307 3.014h-27.352C257.49 49 256 47.463 256 45.562V29.426c0-1.889 1.49-3.426 3.318-3.426h27.352c1.841 0 3.33 1.537 3.33 3.426"/>
        <path fill="#25958C" d="M292 43.188v8.317c0 1.93-1.583 3.495-3.536 3.495h-7.214v-7.026H276v-6.46c0-1.94 1.592-3.514 3.556-3.514h10.91v5.188H292z"/>
        <path fill="#FFD483" d="M301 46.64v11.709A3.65 3.65 0 0 1 297.349 62h-11.71A3.648 3.648 0 0 1 282 58.349v-11.71A3.637 3.637 0 0 1 285.64 43h11.709A3.64 3.64 0 0 1 301 46.64"/>
    </g>
</svg>
