<svg xmlns="http://www.w3.org/2000/svg" width="129" height="106" viewBox="0 0 129 106">
    <g fill="none" fill-rule="evenodd">
        <path fill="#57A0D7" d="M100.745 5.817v41.786c0 .206 0 .39-.02.596a5.873 5.873 0 0 1-5.84 5.241H5.86C2.62 53.44 0 50.83 0 47.603V5.817C0 2.611 2.62 0 5.86 0h89.026c3.239 0 5.86 2.61 5.86 5.817"/>
        <path fill="#4681AC" d="M100.724 37.183V64.58a5.84 5.84 0 0 1-5.839 5.838h-42.13V53.44H40.892V37.183c0-3.227 2.622-5.817 5.86-5.817h53.972v5.817z"/>
        <path fill="#35BCB1" d="M112.587 48.98V76.38c0 .246-.02.493-.041.719-.349 2.898-2.827 5.118-5.818 5.118H58.594a5.841 5.841 0 0 1-5.839-5.837V48.98c0-3.206 2.622-5.817 5.839-5.817h48.134c3.239 0 5.86 2.61 5.86 5.817"/>
        <path fill="#26958D" d="M117.292 73.912V88.34c0 3.348-2.726 6.063-6.087 6.063H96.722V82.216H89.75V71.008c0-3.367 2.74-6.097 6.122-6.097h16.716v9h4.704z"/>
        <path fill="#FFD484" d="M128.392 79.956V99.4c0 3.35-2.724 6.063-6.087 6.063h-19.517a6.068 6.068 0 0 1-6.066-6.063V79.956c0-3.35 2.723-6.043 6.066-6.043h19.517c3.363 0 6.087 2.692 6.087 6.043"/>
    </g>
</svg>
