<svg xmlns="http://www.w3.org/2000/svg" width="61" height="74" viewBox="0 0 61 74">
    <defs>
        <filter id="a" width="142.9%" height="135.5%" x="-21.4%" y="-13.7%" filterUnits="objectBoundingBox">
            <feOffset dy="3" in="SourceAlpha" result="shadowOffsetOuter1"/>
            <feGaussianBlur in="shadowOffsetOuter1" result="shadowBlurOuter1" stdDeviation="3"/>
            <feColorMatrix in="shadowBlurOuter1" result="shadowMatrixOuter1" values="0 0 0 0 0 0 0 0 0 0 0 0 0 0 0 0 0 0 0.5 0"/>
            <feMerge>
                <feMergeNode in="shadowMatrixOuter1"/>
                <feMergeNode in="SourceGraphic"/>
            </feMerge>
        </filter>
    </defs>
    <g fill="none" fill-rule="evenodd">
        <path d="M-33-30H97v130H-33z"/>
        <g filter="url(#a)" transform="translate(6 3)">
            <path fill="#FFFBD8" d="M46.158 61.656H2.63C1.177 61.656 0 60.49 0 59.052V6.89c0-1.439 1.176-2.604 2.63-2.604h43.527c1.452 0 2.63 1.165 2.63 2.604v52.162c0 1.438-1.178 2.604-2.63 2.604"/>
            <path fill="#35BCB1" d="M12.79 55.964c0-.284-.08-.51-.239-.677-.16-.168-.43-.324-.81-.465a9.67 9.67 0 0 1-.987-.423 3.133 3.133 0 0 1-.712-.484 1.954 1.954 0 0 1-.461-.642 2.143 2.143 0 0 1-.165-.877c0-.586.19-1.065.566-1.439.378-.374.88-.592 1.506-.655v-.698c0-.228.187-.413.417-.413h.006c.23 0 .417.185.417.413v.714c.619.086 1.103.342 1.453.766.177.215.31.462.397.74a.701.701 0 0 1-.674.909h-.092a.717.717 0 0 1-.686-.54 1.016 1.016 0 0 0-.196-.392.862.862 0 0 0-.696-.31c-.287 0-.509.081-.666.243-.157.161-.235.383-.235.667 0 .263.076.474.23.633.154.16.44.323.858.49.417.165.762.322 1.031.47.269.146.497.312.682.498.185.185.327.396.425.633.098.237.147.514.147.829 0 .588-.185 1.066-.557 1.434-.37.367-.881.583-1.532.649v.621a.415.415 0 0 1-.417.413.415.415 0 0 1-.417-.413v-.616c-.717-.076-1.272-.328-1.665-.756a2.118 2.118 0 0 1-.463-.806c-.142-.447.204-.9.676-.9h.098c.32 0 .592.217.682.523.049.168.126.31.23.425.196.22.481.33.852.33.307 0 .55-.08.729-.242.178-.161.268-.378.268-.652"/>
            <path fill="#231F20" d="M10.559 7.418c0 .955-.782 1.73-1.747 1.73a1.737 1.737 0 0 1-1.746-1.73c0-.955.782-1.729 1.746-1.729.965 0 1.747.774 1.747 1.73M17.14 7.418c0 .955-.782 1.73-1.747 1.73a1.737 1.737 0 0 1-1.747-1.73c0-.955.782-1.729 1.747-1.729.965 0 1.746.774 1.746 1.73M23.72 7.418c0 .955-.782 1.73-1.747 1.73a1.737 1.737 0 0 1-1.746-1.73c0-.955.781-1.729 1.746-1.729s1.746.774 1.746 1.73M30.3 7.418c0 .955-.782 1.73-1.747 1.73a1.737 1.737 0 0 1-1.746-1.73c0-.955.781-1.729 1.746-1.729s1.747.774 1.747 1.73M36.88 7.418c0 .955-.782 1.73-1.746 1.73a1.737 1.737 0 0 1-1.747-1.73c0-.955.782-1.729 1.747-1.729.964 0 1.746.774 1.746 1.73M43.46 7.418c0 .955-.781 1.73-1.746 1.73a1.737 1.737 0 0 1-1.747-1.73c0-.955.782-1.729 1.747-1.729.965 0 1.746.774 1.746 1.73"/>
            <path fill="#BFC1C3" d="M41.778.095c-2.803-.575-5.266 1.527-5.266 4.19h2.205c0-1.371 1.343-2.446 2.806-1.999.634.194 1.15.705 1.345 1.333a2.116 2.116 0 0 1-1.3 2.652 1.083 1.083 0 0 0-.72 1.018c0 .752.753 1.292 1.467 1.037 1.937-.692 3.236-2.716 2.766-4.96-.34-1.622-1.665-2.935-3.303-3.27"/>
            <path fill="#484559" d="M40.087 2.321a2.106 2.106 0 0 0-1.374 1.965h-2.205a4.282 4.282 0 0 1 2.77-3.995l.81 2.03z"/>
            <path fill="#BFC1C3" d="M35.197.095c-2.802-.575-5.265 1.527-5.265 4.19h2.205c0-1.371 1.343-2.446 2.805-1.999.634.194 1.15.705 1.346 1.333a2.116 2.116 0 0 1-1.301 2.652 1.083 1.083 0 0 0-.719 1.018c0 .752.753 1.292 1.466 1.037 1.938-.692 3.236-2.716 2.767-4.96-.34-1.622-1.665-2.935-3.304-3.27"/>
            <path fill="#484559" d="M33.508 2.321a2.106 2.106 0 0 0-1.374 1.965H29.93A4.282 4.282 0 0 1 32.7.291l.81 2.03z"/>
            <path fill="#BFC1C3" d="M28.617.095c-2.802-.575-5.265 1.527-5.265 4.19h2.205c0-1.371 1.343-2.446 2.805-1.999.634.194 1.15.705 1.346 1.333a2.116 2.116 0 0 1-1.301 2.652 1.083 1.083 0 0 0-.719 1.018c0 .752.753 1.292 1.466 1.037 1.938-.692 3.236-2.716 2.767-4.96-.34-1.622-1.665-2.935-3.304-3.27"/>
            <path fill="#484559" d="M26.93 2.321a2.106 2.106 0 0 0-1.375 1.965H23.35A4.282 4.282 0 0 1 26.12.291l.81 2.03z"/>
            <path fill="#BFC1C3" d="M22.037.095c-2.803-.575-5.266 1.527-5.266 4.19h2.205c0-1.371 1.343-2.446 2.806-1.999.634.194 1.15.705 1.346 1.333a2.116 2.116 0 0 1-1.302 2.652 1.083 1.083 0 0 0-.718 1.018c0 .752.752 1.292 1.466 1.037 1.937-.692 3.236-2.716 2.766-4.96-.339-1.622-1.664-2.935-3.303-3.27"/>
            <path fill="#484559" d="M20.35 2.321a2.106 2.106 0 0 0-1.373 1.965h-2.205a4.282 4.282 0 0 1 2.77-3.995l.809 2.03z"/>
            <path fill="#BFC1C3" d="M15.456.095c-2.802-.575-5.265 1.527-5.265 4.19h2.205c0-1.371 1.343-2.446 2.805-1.999.635.194 1.15.705 1.346 1.333a2.116 2.116 0 0 1-1.3 2.652 1.083 1.083 0 0 0-.72 1.018c0 .752.753 1.292 1.467 1.037 1.937-.692 3.235-2.716 2.766-4.96-.34-1.622-1.665-2.935-3.304-3.27"/>
            <path fill="#6C6E70" d="M13.772 2.321a2.106 2.106 0 0 0-1.374 1.965h-2.205a4.282 4.282 0 0 1 2.77-3.995l.809 2.03z"/>
            <path fill="#BFC1C3" d="M8.876.095C6.074-.48 3.611 1.622 3.611 4.285h2.205c0-1.371 1.343-2.446 2.805-1.999.634.194 1.15.705 1.346 1.333A2.116 2.116 0 0 1 8.666 6.27a1.083 1.083 0 0 0-.719 1.018c0 .752.753 1.292 1.466 1.037 1.938-.692 3.236-2.716 2.767-4.96-.34-1.622-1.665-2.935-3.304-3.27"/>
            <path fill="#57A2D8" d="M24.394 17.473H9.003c-1.55 0-2.806-1.243-2.806-2.777s1.256-2.778 2.806-2.778h15.391v5.555z"/>
            <path fill="#4A87B0" d="M39.786 17.473H24.394v-5.555h15.392c1.55 0 2.805 1.244 2.805 2.778s-1.256 2.777-2.805 2.777"/>
            <path fill="#BFC1C3" d="M25.305 25.158H8.731a2.094 2.094 0 0 1-2.104-2.083c0-1.15.941-2.083 2.104-2.083h16.574c1.162 0 2.105.933 2.105 2.083 0 1.15-.943 2.083-2.105 2.083"/>
            <path fill="#57A2D8" d="M28.121 53.164h-8.287c-.581 0-1.052-.467-1.052-1.042s.47-1.041 1.052-1.041h8.287c.581 0 1.053.466 1.053 1.041s-.472 1.042-1.053 1.042M31.593 53.164c-.58 0-1.052-.467-1.052-1.042s.471-1.041 1.052-1.041c.58 0 1.052.466 1.052 1.041s-.471 1.042-1.052 1.042M34.77 53.164c-.581 0-1.052-.467-1.052-1.042s.47-1.041 1.052-1.041c.58 0 1.052.466 1.052 1.041s-.471 1.042-1.052 1.042"/>
            <path fill="#4A87B0" d="M38.513 57.789H19.834a1.047 1.047 0 0 1-1.052-1.042c0-.575.47-1.042 1.052-1.042h18.68c.58 0 1.051.467 1.051 1.042s-.471 1.042-1.052 1.042"/>
            <path fill="#BFC1C3" d="M25.305 34.972H8.731a2.094 2.094 0 0 1-2.104-2.083c0-1.15.941-2.083 2.104-2.083h16.574c1.162 0 2.105.933 2.105 2.083 0 1.15-.943 2.083-2.105 2.083M25.305 44.035H8.731a2.094 2.094 0 0 1-2.104-2.083c0-1.15.941-2.083 2.104-2.083h16.574c1.162 0 2.105.933 2.105 2.083 0 1.15-.943 2.083-2.105 2.083"/>
            <path fill="#484559" d="M40.058 25.158h-6.11a2.094 2.094 0 0 1-2.104-2.083c0-1.15.942-2.083 2.104-2.083h6.11c1.162 0 2.104.933 2.104 2.083 0 1.15-.942 2.083-2.104 2.083M40.058 34.972h-6.11a2.094 2.094 0 0 1-2.104-2.083c0-1.15.942-2.083 2.104-2.083h6.11c1.162 0 2.104.933 2.104 2.083 0 1.15-.942 2.083-2.104 2.083M40.058 44.035h-6.11a2.094 2.094 0 0 1-2.104-2.083c0-1.15.942-2.083 2.104-2.083h6.11c1.162 0 2.104.933 2.104 2.083 0 1.15-.942 2.083-2.104 2.083"/>
        </g>
    </g>
</svg>
