<svg xmlns="http://www.w3.org/2000/svg" width="130" height="48" viewBox="0 0 130 48">
    <g fill="none" fill-rule="evenodd">
        <path fill="#F2F2F2" d="M20.743 37.605c0 1.663-.338 3.135-1.014 4.415-.676 1.286-1.552 2.277-2.628 2.98a12.742 12.742 0 0 1-3.326 1.556 12.006 12.006 0 0 1-3.424.507c-1.218 0-2.374-.151-3.463-.45-1.09-.297-1.979-.662-2.664-1.089a13.857 13.857 0 0 1-1.792-1.303c-.507-.44-.862-.818-1.067-1.129l-.351-.427C.338 41.834 0 41.145 0 40.602c0-.778.56-1.712 1.676-2.801.645-.623 1.294-.934 1.943-.934.805 0 1.792.582 2.957 1.752l.196.191c.102.133.258.298.467.507.209.209.61.49 1.205.836.596.351 1.183.525 1.752.525 2.414 0 3.62-.983 3.62-2.957 0-.596-.33-1.094-.992-1.499-.663-.4-1.485-.693-2.473-.871-.987-.183-2.05-.476-3.192-.876a21.24 21.24 0 0 1-3.188-1.423c-.987-.543-1.81-1.405-2.473-2.588-.662-1.178-.991-2.601-.991-4.26 0-2.28.85-4.273 2.548-5.971C4.753 18.534 7.07 17.68 10 17.68c1.556 0 2.98.205 4.264.605 1.281.405 2.17.81 2.664 1.227l.778.583.196.155c.804.752 1.205 1.374 1.205 1.868 0 .547-.312 1.272-.934 2.179-.88 1.298-1.788 1.947-2.726 1.947-.542 0-1.218-.262-2.023-.778a4.766 4.766 0 0 1-.445-.391 4.49 4.49 0 0 0-.604-.485c-.183-.12-.485-.236-.916-.351a5.747 5.747 0 0 0-1.494-.174c-.623 0-1.214.2-1.775.6-.555.405-.835.93-.835 1.58 0 .777.333 1.387.991 1.827.663.44 1.485.738 2.472.893a28.86 28.86 0 0 1 3.229.72c1.169.325 2.245.721 3.232 1.188.983.467 1.81 1.28 2.472 2.432.659 1.156.992 2.588.992 4.3M111.096 28.075V43.26a3.406 3.406 0 0 1-6.812 0V28.075c0-.738.6-1.334 1.334-1.334h4.144c.737 0 1.334.597 1.334 1.334M101.014 43.555l-2.774 2.779a1.34 1.34 0 0 1-1.89 0l-6.11-6.11v5.168c0 .705-.57 1.275-1.274 1.275h-4.263c-.704 0-1.275-.57-1.275-1.275V17.93c0-.739.6-1.338 1.339-1.338h4.13c.74 0 1.34.6 1.34 1.338v13.34l5.095-5.091c.52-.52 1.365-.52 1.885 0l2.78 2.779c.52.52.52 1.364 0 1.885l-4.905 4.904 5.922 5.923c.525.52.525 1.365 0 1.886M38.093 27.945v3.824a1.2 1.2 0 0 1-1.2 1.2h-4.58v6.24c0 .729.59 1.32 1.32 1.32h1.908c.67 0 1.218.548 1.218 1.218v3.704c0 .67-.548 1.218-1.218 1.218h-2.784c-7.492 0-7.559-5.109-7.559-8.017v-18.23c0-.68.557-1.237 1.237-1.237h4.642c.68 0 1.236.557 1.236 1.237v6.322h4.58a1.2 1.2 0 0 1 1.2 1.201M129.776 27.945v3.824a1.2 1.2 0 0 1-1.2 1.2h-4.58v6.24c0 .729.59 1.32 1.32 1.32h1.908c.67 0 1.218.548 1.218 1.218v3.704c0 .67-.548 1.218-1.218 1.218h-2.784c-7.492 0-7.559-5.109-7.559-8.017v-18.23c0-.68.556-1.237 1.236-1.237h4.642c.68 0 1.237.557 1.237 1.237v6.322h4.58a1.2 1.2 0 0 1 1.2 1.201M73.43 40.249a3.848 3.848 0 0 1-3.845-3.965c.063-2.075 1.849-3.77 3.924-3.727a3.82 3.82 0 0 1 2.417.922c.738.632 1.855.542 2.542-.145l2.165-2.165c.76-.76.742-2.01-.056-2.728A10.639 10.639 0 0 0 73.43 25.7c-5.914 0-10.703 4.793-10.703 10.702 0 5.91 4.789 10.699 10.703 10.699 2.749 0 5.257-1.037 7.148-2.741.798-.72.815-1.968.056-2.728l-2.18-2.18c-.7-.7-1.808-.728-2.566-.094a3.818 3.818 0 0 1-2.458.89M47.364 39.122a3.848 3.848 0 0 1 5.44-5.44c1.5 1.5 1.5 3.934-.004 5.437a3.847 3.847 0 0 1-5.436.003m10.288-10.288c-4.182-4.181-10.958-4.178-15.137 0-4.178 4.179-4.178 10.951.004 15.133 4.178 4.179 10.95 4.179 15.13 0 4.178-4.179 4.181-10.954.003-15.133"/>
        <path fill="#57A0D7" d="M105.139 1.703v9.04c0 .044 0 .084-.005.129a1.268 1.268 0 0 1-1.258 1.133H84.69a1.262 1.262 0 0 1-1.262-1.262v-9.04c0-.694.564-1.259 1.262-1.259h19.187c.698 0 1.263.565 1.263 1.259"/>
        <path fill="#4580AC" d="M105.134 8.488v5.928c0 .698-.564 1.262-1.258 1.262h-9.08v-3.672H92.24V8.488c0-.698.566-1.258 1.263-1.258h11.632v1.258z"/>
        <path fill="#33BCB1" d="M107.691 11.04v5.928a1.26 1.26 0 0 1-1.263 1.263H96.055a1.261 1.261 0 0 1-1.259-1.263V11.04a1.26 1.26 0 0 1 1.259-1.259h10.373c.698 0 1.263.565 1.263 1.259"/>
        <path fill="#25958C" d="M108.26 16.434v3.122c0 .724-.587 1.311-1.312 1.311h-2.676V18.23h-1.948v-2.424c0-.729.591-1.319 1.32-1.319h4.047v1.947h.57z"/>
        <path fill="#FFD483" d="M111.097 17.742v4.206c0 .725-.587 1.312-1.312 1.312h-4.206a1.31 1.31 0 0 1-1.307-1.312v-4.206c0-.725.587-1.308 1.307-1.308h4.206c.725 0 1.312.583 1.312 1.308"/>
    </g>
</svg>
