<svg xmlns="http://www.w3.org/2000/svg" width="80" height="65" viewBox="0 0 80 65">
    <g fill="none" fill-rule="evenodd">
        <path fill="#848487" d="M64.338 31.564c-.407 0-.798-.226-.988-.615l-1.451-2.96a1.098 1.098 0 0 1 .502-1.47 1.094 1.094 0 0 1 1.47.502l1.451 2.96a1.097 1.097 0 0 1-.984 1.583M68.207 39.458c-.406 0-.797-.226-.987-.616l-1.45-2.96a1.097 1.097 0 0 1 .502-1.47 1.096 1.096 0 0 1 1.47.502l1.451 2.961a1.099 1.099 0 0 1-.986 1.583M72.079 47.353c-.407 0-.797-.225-.988-.615l-1.452-2.96a1.099 1.099 0 1 1 1.973-.968l1.452 2.96a1.098 1.098 0 0 1-.985 1.583M37.746 63.935h-.643a1.099 1.099 0 1 1 0-2.198h.643a1.099 1.099 0 1 1 0 2.198M46.538 63.935h-3.297a1.099 1.099 0 1 1 0-2.198h3.297a1.099 1.099 0 1 1 0 2.198M55.33 63.935h-3.297a1.099 1.099 0 1 1 0-2.198h3.297a1.099 1.099 0 1 1 0 2.198"/>
        <path fill="#848487" d="M38.994 63.934H13.689a10.76 10.76 0 0 1-9.185-5.098 10.76 10.76 0 0 1-.533-10.492l16.384-33.418C23.78 7.936 31.027 3.42 38.812 3.42a1.098 1.098 0 1 1 0 2.198c-6.952 0-13.423 4.033-16.485 10.277L5.943 49.312a8.58 8.58 0 0 0 .426 8.362 8.577 8.577 0 0 0 7.32 4.062h25.305a1.098 1.098 0 1 1 0 2.198"/>
        <path fill="#6C6E70" d="M39.863.099v45.235h-3.484a2.434 2.434 0 0 1-2.44-2.44c0-1.461-1.198-2.44-2.45-2.44-.605 0-1.22.231-1.715.726a2.439 2.439 0 0 1-1.725.714 2.432 2.432 0 0 1-1.715-.714L21.4 36.245a2.434 2.434 0 0 1 0-3.45c.494-.495.725-1.11.725-1.704 0-1.253-.978-2.45-2.45-2.45-.671 0-1.276-.276-1.726-.715a2.463 2.463 0 0 1-.715-1.726v-6.978a2.441 2.441 0 0 1 2.44-2.44c1.473 0 2.451-1.198 2.451-2.45 0-.605-.23-1.21-.725-1.704a2.439 2.439 0 0 1 0-3.451l4.934-4.924a2.421 2.421 0 0 1 3.44 0c.495.495 1.11.726 1.714.726 1.253 0 2.451-.979 2.451-2.451 0-.67.275-1.275.715-1.715A2.424 2.424 0 0 1 36.379.1h3.484z"/>
        <path fill="#BFC1C3" d="M62.48 19.222V26.2c0 1.341-1.088 2.44-2.44 2.44-2.165 0-3.253 2.616-1.725 4.154.484.484.714 1.1.714 1.726 0 .626-.23 1.242-.714 1.725l-4.934 4.935a2.441 2.441 0 0 1-3.44 0 2.409 2.409 0 0 0-1.715-.726c-1.253 0-2.45.979-2.45 2.44a2.443 2.443 0 0 1-2.43 2.44h-3.483V.1h3.484a2.43 2.43 0 0 1 2.428 2.429c0 1.472 1.198 2.45 2.451 2.45.605 0 1.22-.23 1.715-.725a2.432 2.432 0 0 1 1.714-.714c.627 0 1.253.242 1.726.714l4.934 4.924a2.434 2.434 0 0 1 0 3.45 2.366 2.366 0 0 0-.714 1.693c0 1.253.978 2.462 2.44 2.462a2.443 2.443 0 0 1 2.44 2.44"/>
        <path fill="#BFC1C3" d="M39.863 18.362a4.354 4.354 0 1 1 0 8.71 4.354 4.354 0 0 1 0-8.71M36.714 7.983l6.155 6.154a4.354 4.354 0 0 1-6.155 0 4.355 4.355 0 0 1 0-6.154"/>
        <path fill="#6C6E70" d="M42.877 7.975a4.357 4.357 0 0 1-.008 6.162l-6.154-6.154a4.356 4.356 0 0 1 6.162-.008"/>
        <path fill="#BFC1C3" d="M36.714 31.303l6.155 6.155a4.354 4.354 0 0 1-6.155 0 4.355 4.355 0 0 1 0-6.155"/>
        <path fill="#6C6E70" d="M42.877 31.295a4.357 4.357 0 0 1-.008 6.163l-6.154-6.155a4.356 4.356 0 0 1 6.162-.008"/>
        <path fill="#BFC1C3" d="M48.442 19.643l6.155 6.154a4.354 4.354 0 0 1-6.155 0 4.355 4.355 0 0 1 0-6.154"/>
        <path fill="#6C6E70" d="M54.605 19.635a4.357 4.357 0 0 1-.008 6.162l-6.154-6.154a4.356 4.356 0 0 1 6.162-.008"/>
        <path fill="#BFC1C3" d="M25.122 19.643l6.154 6.154a4.354 4.354 0 0 1-6.154 0 4.355 4.355 0 0 1 0-6.154"/>
        <path fill="#6C6E70" d="M31.284 19.635a4.357 4.357 0 0 1-.007 6.162l-6.155-6.154a4.356 4.356 0 0 1 6.162-.008M68.384 41.577V64.24h-1.745a1.22 1.22 0 0 1-1.223-1.222 1.22 1.22 0 0 0-2.087-.859 1.219 1.219 0 0 1-1.723 0l-2.473-2.472a1.221 1.221 0 0 1 0-1.73 1.2 1.2 0 0 0 .364-.852c0-.627-.49-1.229-1.227-1.229-.337 0-.639-.137-.865-.357a1.237 1.237 0 0 1-.358-.865v-3.496c0-.677.551-1.222 1.223-1.222.737 0 1.227-.6 1.227-1.227 0-.304-.115-.606-.364-.854a1.222 1.222 0 0 1 0-1.729l2.473-2.466c.474-.48 1.25-.48 1.723 0a1.221 1.221 0 0 0 2.087-.865c0-.335.138-.639.358-.858.22-.221.523-.359.865-.359h1.745z"/>
        <path fill="#BFC1C3" d="M79.715 51.157v3.496c0 .672-.546 1.222-1.223 1.222-1.084 0-1.63 1.312-.864 2.082.242.243.358.55.358.865 0 .313-.116.622-.358.864l-2.472 2.473a1.225 1.225 0 0 1-1.723 0 1.22 1.22 0 0 0-2.087.858 1.223 1.223 0 0 1-1.217 1.222h-1.745V41.577h1.745c.672 0 1.217.546 1.217 1.217a1.221 1.221 0 0 0 2.087.865 1.215 1.215 0 0 1 1.723 0l2.472 2.466c.479.48.479 1.25 0 1.729-.248.248-.358.55-.358.848 0 .628.49 1.233 1.222 1.233a1.224 1.224 0 0 1 1.223 1.222"/>
        <path fill="#BFC1C3" d="M68.384 50.727a2.182 2.182 0 1 1-.001 4.364 2.182 2.182 0 0 1 0-4.364"/>
        <path fill="#6C6E70" d="M68.35 50.727a2.182 2.182 0 1 1 0 4.364 2.182 2.182 0 0 1 0-4.364"/>
        <path fill="#BFC1C3" d="M66.806 45.527l3.084 3.084a2.183 2.183 0 0 1-3.084 0 2.182 2.182 0 0 1 0-3.084"/>
        <path fill="#6C6E70" d="M69.894 45.523a2.182 2.182 0 0 1-.005 3.087l-3.082-3.083a2.182 2.182 0 0 1 3.087-.004"/>
        <path fill="#BFC1C3" d="M66.806 57.21l3.084 3.084a2.183 2.183 0 0 1-3.084 0 2.182 2.182 0 0 1 0-3.084"/>
        <path fill="#6C6E70" d="M69.894 57.206a2.182 2.182 0 0 1-.005 3.087l-3.082-3.082a2.182 2.182 0 0 1 3.087-.005"/>
        <path fill="#BFC1C3" d="M72.682 51.368l3.084 3.084a2.183 2.183 0 0 1-3.084 0 2.182 2.182 0 0 1 0-3.084"/>
        <path fill="#6C6E70" d="M75.77 51.364a2.182 2.182 0 0 1-.005 3.088l-3.083-3.083a2.182 2.182 0 0 1 3.087-.005"/>
        <path fill="#BFC1C3" d="M60.999 51.368l3.084 3.084a2.183 2.183 0 0 1-3.084 0 2.182 2.182 0 0 1 0-3.084"/>
        <path fill="#6C6E70" d="M64.086 51.364a2.182 2.182 0 0 1-.004 3.088l-3.083-3.083a2.182 2.182 0 0 1 3.087-.005M11.336 41.577V64.24H9.591a1.22 1.22 0 0 1-1.222-1.222 1.22 1.22 0 0 0-2.087-.859 1.219 1.219 0 0 1-1.723 0l-2.473-2.472a1.221 1.221 0 0 1 0-1.73 1.2 1.2 0 0 0 .364-.852c0-.627-.49-1.229-1.228-1.229-.336 0-.638-.137-.865-.357A1.237 1.237 0 0 1 0 54.653v-3.496c0-.677.55-1.222 1.222-1.222.738 0 1.228-.6 1.228-1.227 0-.304-.115-.606-.364-.854a1.222 1.222 0 0 1 0-1.729l2.473-2.466c.474-.48 1.25-.48 1.723 0a1.221 1.221 0 0 0 2.087-.865c0-.335.138-.639.357-.858.221-.221.523-.359.865-.359h1.745z"/>
        <path fill="#BFC1C3" d="M22.667 51.157v3.496c0 .672-.545 1.222-1.222 1.222-1.084 0-1.63 1.312-.865 2.082.243.243.359.55.359.865 0 .313-.116.622-.359.864l-2.471 2.473a1.225 1.225 0 0 1-1.723 0 1.22 1.22 0 0 0-2.087.858 1.223 1.223 0 0 1-1.217 1.222h-1.745V41.577h1.745c.671 0 1.216.546 1.216 1.217a1.221 1.221 0 0 0 2.088.865 1.215 1.215 0 0 1 1.723 0l2.471 2.466c.48.48.48 1.25 0 1.729-.247.248-.357.55-.357.848 0 .628.49 1.233 1.222 1.233a1.224 1.224 0 0 1 1.222 1.222"/>
        <path fill="#BFC1C3" d="M11.336 50.727a2.182 2.182 0 1 1 0 4.364 2.182 2.182 0 0 1 0-4.364M9.76 45.527l3.083 3.084a2.183 2.183 0 0 1-3.084 0 2.182 2.182 0 0 1 0-3.084"/>
        <path fill="#6C6E70" d="M12.846 45.523a2.182 2.182 0 0 1-.004 3.087l-3.083-3.083a2.182 2.182 0 0 1 3.087-.004"/>
        <path fill="#BFC1C3" d="M9.76 57.21l3.083 3.084a2.183 2.183 0 0 1-3.084 0 2.182 2.182 0 0 1 0-3.084"/>
        <path fill="#838588" d="M12.846 57.206a2.182 2.182 0 0 1-.004 3.087l-3.083-3.082a2.182 2.182 0 0 1 3.087-.005"/>
        <path fill="#BFC1C3" d="M15.635 51.368l3.083 3.084a2.183 2.183 0 0 1-3.083 0 2.182 2.182 0 0 1 0-3.084"/>
        <path fill="#6C6E70" d="M18.722 51.364a2.182 2.182 0 0 1-.005 3.088l-3.082-3.083a2.182 2.182 0 0 1 3.087-.005"/>
        <path fill="#BFC1C3" d="M3.952 51.368l3.083 3.084a2.183 2.183 0 0 1-3.083 0 2.182 2.182 0 0 1 0-3.084"/>
        <path fill="#6C6E70" d="M7.039 51.364a2.182 2.182 0 0 1-.005 3.088l-3.082-3.083a2.182 2.182 0 0 1 3.087-.005"/>
        <path fill="#838588" d="M39.795 18.362a4.354 4.354 0 1 1 0 8.71 4.354 4.354 0 0 1 0-8.71"/>
        <path fill="#6C6E70" d="M11.303 50.727a2.182 2.182 0 1 1-.001 4.364 2.182 2.182 0 0 1 0-4.364"/>
    </g>
</svg>
