<svg xmlns="http://www.w3.org/2000/svg" width="96" height="34" viewBox="0 0 96 34">
    <defs>
        <filter id="a" width="124.7%" height="191.3%" x="-12.4%" y="-32.6%" filterUnits="objectBoundingBox">
            <feOffset dy="3" in="SourceAlpha" result="shadowOffsetOuter1"/>
            <feGaussianBlur in="shadowOffsetOuter1" result="shadowBlurOuter1" stdDeviation="3"/>
            <feColorMatrix in="shadowBlurOuter1" result="shadowMatrixOuter1" values="0 0 0 0 0 0 0 0 0 0 0 0 0 0 0 0 0 0 0.5 0"/>
            <feMerge>
                <feMergeNode in="shadowMatrixOuter1"/>
                <feMergeNode in="SourceGraphic"/>
            </feMerge>
        </filter>
    </defs>
    <g fill="none" fill-rule="evenodd">
        <path d="M-17-51h130V79H-17z"/>
        <g filter="url(#a)" transform="translate(5 2)">
            <path fill="#B84569" d="M22.136 12.147c0 5.967-4.73 10.802-10.568 10.802-3.702 0-6.96-1.943-8.842-4.89a10.335 10.335 0 0 0 5.786 1.765c5.837 0 10.567-4.835 10.567-10.802 0-2.184-.633-4.215-1.73-5.913 2.882 1.923 4.787 5.253 4.787 9.038"/>
            <path fill="#DE557E" d="M19.08 9.022c0 5.967-4.731 10.802-10.568 10.802-2.137 0-4.123-.647-5.786-1.764a10.895 10.895 0 0 1-1.727-5.913C1 6.184 5.731 1.344 11.57 1.344c2.132 0 4.118.644 5.78 1.765a10.865 10.865 0 0 1 1.73 5.913"/>
            <path fill="#C7A86A" d="M53.266 12.147c0 5.967-4.73 10.802-10.568 10.802-3.698 0-6.956-1.943-8.839-4.89a10.335 10.335 0 0 0 5.786 1.765c5.834 0 10.568-4.835 10.568-10.802 0-2.184-.634-4.215-1.726-5.913 2.878 1.927 4.779 5.257 4.779 9.038"/>
            <path fill="#FFD585" d="M50.213 9.022c0 5.967-4.735 10.802-10.568 10.802-2.136 0-4.123-.647-5.786-1.764a10.875 10.875 0 0 1-1.729-5.913c0-5.963 4.735-10.803 10.568-10.803 2.136 0 4.127.648 5.789 1.765a10.895 10.895 0 0 1 1.726 5.913"/>
            <path fill="#27968E" d="M84.4 12.147c0 5.967-4.731 10.802-10.568 10.802-3.702 0-6.96-1.943-8.843-4.89a10.335 10.335 0 0 0 5.786 1.765c5.837 0 10.568-4.835 10.568-10.802 0-2.184-.634-4.215-1.73-5.913 2.881 1.923 4.786 5.253 4.786 9.038"/>
            <path fill="#35BCB1" d="M81.343 9.022c0 5.967-4.73 10.802-10.568 10.802-2.136 0-4.123-.647-5.786-1.764a10.895 10.895 0 0 1-1.726-5.913c0-5.963 4.731-10.803 10.569-10.803 2.132 0 4.119.644 5.78 1.765a10.865 10.865 0 0 1 1.73 5.913"/>
        </g>
    </g>
</svg>
